<svg xmlns="http://www.w3.org/2000/svg" version="1.1" xmlns:xlink="http://www.w3.org/1999/xlink" xmlns:svgjs="http://svgjs.dev/svgjs" width="1440" height="560" preserveAspectRatio="none" viewBox="0 0 1440 560"><g mask="url(&quot;#SvgjsMask1472&quot;)" fill="none"><rect width="1440" height="560" x="0" y="0" fill="url(&quot;#SvgjsLinearGradient1473&quot;)"></rect><path d="M1440 0L931.9 0L1440 225.16z" fill="rgba(255, 255, 255, .1)"></path><path d="M931.9 0L1440 225.16L1440 226.57999999999998L668.46 0z" fill="rgba(255, 255, 255, .075)"></path><path d="M668.46 0L1440 226.57999999999998L1440 368.28L325.65000000000003 0z" fill="rgba(255, 255, 255, .05)"></path><path d="M325.6500000000001 0L1440 368.28L1440 487.32L138.0200000000001 0z" fill="rgba(255, 255, 255, .025)"></path><path d="M0 560L503.32 560L0 341.98z" fill="rgba(0, 0, 0, .1)"></path><path d="M0 341.98L503.32 560L789.89 560L0 208.91000000000003z" fill="rgba(0, 0, 0, .075)"></path><path d="M0 208.90999999999997L789.89 560L1106.46 560L0 86.22999999999996z" fill="rgba(0, 0, 0, .05)"></path><path d="M0 86.22999999999996L1106.46 560L1263.91 560L0 69.45999999999997z" fill="rgba(0, 0, 0, .025)"></path></g><defs><mask id="SvgjsMask1472"><rect width="1440" height="560" fill="#ffffff"></rect></mask><linearGradient x1="15.28%" y1="-39.29%" x2="84.72%" y2="139.29%" gradientUnits="userSpaceOnUse" id="SvgjsLinearGradient1473"><stop stop-color="rgba(14, 42, 71, 1)" offset="0"></stop><stop stop-color="rgba(0, 8, 78, 1)" offset="0.57"></stop></linearGradient></defs></svg>